<svg width="33" height="32" viewBox="0 0 33 32" fill="none" xmlns="http://www.w3.org/2000/svg">
<circle cx="16.5" cy="16" r="16" fill="#322F40"/>
<path fill-rule="evenodd" clip-rule="evenodd" d="M10.8431 21.6568C10.4526 21.2663 10.4526 20.6331 10.8431 20.2426L20.7426 10.3431C21.1331 9.95258 21.7663 9.95258 22.1568 10.3431C22.5473 10.7336 22.5473 11.3668 22.1568 11.7573L12.2573 21.6568C11.8668 22.0473 11.2336 22.0473 10.8431 21.6568Z" fill="#FBF9FE"/>
<path fill-rule="evenodd" clip-rule="evenodd" d="M10.8431 10.3432C11.2336 9.95266 11.8668 9.95266 12.2573 10.3432L22.1568 20.2427C22.5473 20.6332 22.5473 21.2664 22.1568 21.6569C21.7663 22.0474 21.1331 22.0474 20.7426 21.6569L10.8431 11.7574C10.4526 11.3669 10.4526 10.7337 10.8431 10.3432Z" fill="#FBF9FE"/>
</svg>
