<svg width="49" height="49" viewBox="0 0 49 49" fill="none" xmlns="http://www.w3.org/2000/svg">
<path d="M6.62478 12.4073C7.90572 11.512 9.83667 11.6837 10.9868 12.6335L9.66769 10.7162C8.60615 9.20219 8.98634 7.56422 10.5017 6.50132C12.017 5.4425 16.3109 8.28918 16.3109 8.28918C15.2398 6.76023 15.4401 4.82247 16.969 3.75003C18.498 2.68167 20.6074 3.05096 21.6785 4.58264L35.8779 24.6416L34.0682 42.1864L18.9654 36.6783L5.79217 17.1467C4.71155 15.6082 5.08493 13.4865 6.62478 12.4073Z" fill="#EF9645"/>
<path d="M3.66784 23.5666C3.66784 23.5666 2.12527 21.3181 4.37508 19.7769C6.62216 18.2357 8.16336 20.4828 8.16336 20.4828L15.3189 30.9183C15.5655 30.5068 15.8353 30.1007 16.1365 29.7001L6.20517 15.2187C6.20517 15.2187 4.66397 12.9716 6.91241 11.4304C9.15949 9.88914 10.7007 12.1362 10.7007 12.1362L20.042 25.7592C20.3894 25.4757 20.7451 25.1909 21.1117 24.9116L10.2823 9.11649C10.2823 9.11649 8.74114 6.8694 10.9896 5.32818C13.2367 3.78697 14.7779 6.03406 14.7779 6.03406L25.6072 21.8264C26.0051 21.5825 26.3989 21.3713 26.7941 21.1478L16.672 6.387C16.672 6.387 15.1308 4.13991 17.3779 2.59869C19.625 1.05748 21.1662 3.30457 21.1662 3.30457L31.8688 18.9129L33.4958 21.2868C26.7532 25.9118 26.1114 34.6126 29.9637 40.231C30.7336 41.3553 31.8579 40.5853 31.8579 40.5853C27.2342 33.8413 28.646 26.2634 35.39 21.6397L33.4018 11.6893C33.4018 11.6893 32.6591 9.06743 35.2796 8.3234C37.9014 7.58073 38.6454 10.2026 38.6454 10.2026L40.9416 17.0215C41.8518 19.7251 42.8207 22.4192 44.103 24.9674C47.7237 32.1625 45.5611 41.1045 38.734 45.7881C31.2869 50.8942 21.1062 48.9959 15.9988 41.5501L3.66784 23.5666Z" fill="#FFDC5D"/>
<path d="M16.3514 43.6065C10.9006 43.6065 5.39258 38.0984 5.39258 32.6476C5.39258 31.894 4.84068 31.2849 4.08711 31.2849C3.33354 31.2849 2.66718 31.894 2.66718 32.6476C2.66718 40.8238 8.17521 46.3319 16.3514 46.3319C17.105 46.3319 17.7141 45.6655 17.7141 44.9119C17.7141 44.1583 17.105 43.6065 16.3514 43.6065Z" fill="#5DADEC"/>
<path d="M9.53885 46.2744C5.45077 46.2744 2.72538 43.549 2.72538 39.4609C2.72538 38.7073 2.11626 38.0982 1.36269 38.0982C0.609124 38.0982 0 38.7073 0 39.4609C0 44.9117 4.08808 48.9998 9.53885 48.9998C10.2924 48.9998 10.9015 48.3907 10.9015 47.6371C10.9015 46.8835 10.2924 46.2744 9.53885 46.2744ZM32.7046 2.66797C31.9524 2.66797 31.3419 3.27846 31.3419 4.03067C31.3419 4.78288 31.9524 5.39337 32.7046 5.39337C38.1554 5.39337 43.6062 10.2841 43.6062 16.295C43.6062 17.0472 44.2166 17.6577 44.9688 17.6577C45.7211 17.6577 46.3315 17.0472 46.3315 16.295C46.3315 8.78104 40.8808 2.66797 32.7046 2.66797Z" fill="#5DADEC"/>
<path d="M39.5186 0C38.7664 0 38.1559 0.553256 38.1559 1.30547C38.1559 2.05768 38.7664 2.7254 39.5186 2.7254C43.6067 2.7254 46.2749 5.75741 46.2749 9.48167C46.2749 10.2339 46.9412 10.8444 47.6948 10.8444C48.4484 10.8444 49.0003 10.2339 49.0003 9.48167C49.0003 4.25299 44.9694 0 39.5186 0Z" fill="#5DADEC"/>
</svg>
