<svg width="30" height="30" viewBox="0 0 30 30" fill="none" xmlns="http://www.w3.org/2000/svg">
  <path d="M2.33917 13.7397L12.9664 7.38149C13.2293 7.22152 13.5303 7.13509 13.8381 7.13123C14.1458 7.12737 14.4489 7.20622 14.7157 7.35955C15.0053 7.52815 15.245 7.77036 15.4107 8.0616C15.5763 8.35284 15.6619 8.68272 15.6588 9.01775V13.4657L25.8274 7.3798C26.0903 7.21983 26.3914 7.13341 26.6991 7.12955C27.0068 7.12568 27.3099 7.20454 27.5768 7.35786C27.8663 7.52646 28.1061 7.76867 28.2717 8.05991C28.4373 8.35115 28.5229 8.68103 28.5198 9.01606V21.4512C28.5231 21.7863 28.4376 22.1163 28.2719 22.4077C28.1063 22.699 27.8664 22.9413 27.5768 23.1099C27.3099 23.2632 27.0068 23.3421 26.6991 23.3382C26.3914 23.3344 26.0903 23.2479 25.8274 23.088L15.6588 16.9993V21.4489C15.6625 21.7844 15.5771 22.1149 15.4114 22.4067C15.2458 22.6985 15.0057 22.9411 14.7157 23.1099C14.4489 23.2632 14.1458 23.3421 13.8381 23.3382C13.5303 23.3344 13.2293 23.2479 12.9664 23.088L2.33917 16.7298C2.08653 16.5715 1.87825 16.3516 1.73386 16.0908C1.58948 15.83 1.51373 15.5368 1.51373 15.2387C1.51373 14.9406 1.58948 14.6473 1.73386 14.3865C1.87825 14.1257 2.08653 13.9058 2.33917 13.7476V13.7397Z" fill="#E1E1E6"/>
</svg>