<svg width="24" height="25" viewBox="0 0 24 25" fill="none" xmlns="http://www.w3.org/2000/svg">
<g clip-path="url(#clip0_1120_297)">
<path d="M24 12.5C24 19.1274 18.6274 24.5 12 24.5C5.37258 24.5 0 19.1274 0 12.5C0 5.87258 5.37258 0.5 12 0.5C18.6274 0.5 24 5.87258 24 12.5Z" fill="#CDA5F8" fill-opacity="0.24"/>
<path d="M14.3148 12.3148C14.3148 12.6738 14.2084 13.0246 14.009 13.3231C13.8095 13.6215 13.5261 13.8541 13.1945 13.9915C12.8629 14.1288 12.498 14.1648 12.1459 14.0948C11.7939 14.0247 11.4705 13.8519 11.2167 13.5981C10.9629 13.3443 10.7901 13.0209 10.7201 12.6689C10.65 12.3168 10.686 11.9519 10.8233 11.6203C10.9607 11.2887 11.1933 11.0053 11.4917 10.8059C11.7902 10.6064 12.1411 10.5 12.5 10.5C12.9813 10.5 13.4429 10.6912 13.7833 11.0315C14.1236 11.3719 14.3148 11.8335 14.3148 12.3148ZM7.31482 10.5C6.95588 10.5 6.605 10.6064 6.30656 10.8059C6.00811 11.0053 5.7755 11.2887 5.63815 11.6203C5.50079 11.9519 5.46485 12.3168 5.53487 12.6689C5.6049 13.0209 5.77774 13.3443 6.03155 13.5981C6.28535 13.8519 6.60872 14.0247 6.96076 14.0948C7.3128 14.1648 7.6777 14.1288 8.00932 13.9915C8.34093 13.8541 8.62436 13.6215 8.82378 13.3231C9.02319 13.0246 9.12963 12.6738 9.12963 12.3148C9.12963 11.8335 8.93843 11.3719 8.59808 11.0315C8.25774 10.6912 7.79613 10.5 7.31482 10.5ZM17.6852 10.5C17.3262 10.5 16.9754 10.6064 16.6769 10.8059C16.3785 11.0053 16.1459 11.2887 16.0085 11.6203C15.8712 11.9519 15.8352 12.3168 15.9052 12.6689C15.9753 13.0209 16.1481 13.3443 16.4019 13.5981C16.6557 13.8519 16.9791 14.0247 17.3311 14.0948C17.6832 14.1648 18.0481 14.1288 18.3797 13.9915C18.7113 13.8541 18.9947 13.6215 19.1941 13.3231C19.3936 13.0246 19.5 12.6738 19.5 12.3148C19.5 12.0765 19.4531 11.8405 19.3619 11.6203C19.2707 11.4001 19.137 11.2001 18.9685 11.0315C18.7999 10.863 18.5999 10.7293 18.3797 10.6381C18.1595 10.5469 17.9235 10.5 17.6852 10.5Z" fill="#CDA5F8"/>
</g>
<defs>
<clipPath id="clip0_1120_297">
<rect width="24" height="24" fill="white" transform="translate(0 0.5)"/>
</clipPath>
</defs>
</svg>
