<svg width="40" height="39" viewBox="0 0 40 39" fill="none" xmlns="http://www.w3.org/2000/svg">
<path fill-rule="evenodd" clip-rule="evenodd" d="M11.5355 15.1202C14.3413 15.1202 16.6165 17.4632 16.6165 20.3525C16.6165 23.2418 14.3413 25.5847 11.5355 25.5847C8.72976 25.5847 6.45455 23.2418 6.45455 20.3525C6.45455 17.4632 8.72976 15.1202 11.5355 15.1202ZM19.0382 6.65008L22.2703 2.66473H20.1416C19.9593 2.66473 19.7835 2.64126 19.6241 2.59434C19.5264 2.56417 19.4385 2.53065 19.3637 2.48373C19.2823 2.44015 19.2074 2.38652 19.1358 2.32284L19.1326 2.31949C19.0609 2.2558 19.0024 2.18876 18.947 2.11502C18.8949 2.04128 18.8494 1.96084 18.8136 1.87369C18.781 1.78989 18.7517 1.7061 18.7322 1.61895C18.7127 1.52509 18.7062 1.43459 18.7062 1.34409C18.7062 1.25359 18.7127 1.16309 18.7289 1.07595C18.7452 0.985446 18.7713 0.898298 18.8038 0.817853C18.8429 0.730705 18.8852 0.65026 18.9373 0.573168C18.9861 0.499427 19.0479 0.425686 19.1163 0.362001L19.1195 0.358649C19.1846 0.294963 19.2628 0.237982 19.3441 0.191056C19.4255 0.14413 19.5134 0.103908 19.611 0.0737409C19.6924 0.0502779 19.7803 0.0268149 19.8649 0.0167593C19.9626 0.00670371 20.0537 0 20.1448 0H24.7571C24.9915 0 25.203 0.0335186 25.3886 0.0972039C25.5806 0.164241 25.7466 0.268149 25.8866 0.402223C26.0363 0.543001 26.147 0.710594 26.2218 0.908353C26.2934 1.10276 26.3292 1.32063 26.3292 1.55861C26.3292 1.74632 26.3097 1.92061 26.2739 2.08486C26.2544 2.17536 26.2251 2.2625 26.1925 2.3463C26.16 2.4301 26.1209 2.51054 26.0754 2.58428C26.0428 2.63456 26.007 2.69489 25.9614 2.75858C25.9224 2.81221 25.8735 2.8826 25.8084 2.96304L25.6262 3.20438L22.4656 7.07577H25.3007C25.3886 7.07577 25.4764 7.07912 25.5643 7.09253C25.649 7.10259 25.7336 7.1227 25.8117 7.14616C25.9061 7.16962 25.994 7.20649 26.0754 7.25007C26.1535 7.29029 26.2251 7.34057 26.2967 7.39755L26.2999 7.4009C26.3716 7.46123 26.4367 7.53497 26.4952 7.60872C26.5506 7.68246 26.5961 7.76625 26.6319 7.85675L26.6482 7.90033C26.6775 7.97407 26.7003 8.05451 26.7133 8.13831C26.7263 8.22211 26.7361 8.3059 26.7361 8.3897C26.7361 8.4802 26.7263 8.57405 26.7101 8.66455C26.6938 8.75505 26.671 8.83885 26.6385 8.92264C26.6059 9.01314 26.5603 9.09359 26.5083 9.17403C26.4562 9.25113 26.3943 9.32151 26.3227 9.3852L26.3162 9.39526C26.2479 9.45894 26.173 9.51257 26.0884 9.5595C26.0103 9.60642 25.9191 9.64329 25.828 9.67011L25.7922 9.68016C25.7173 9.70027 25.6392 9.72039 25.5578 9.73044C25.4699 9.7405 25.3853 9.7472 25.3007 9.7472H20.0342C19.7933 9.7472 19.572 9.71368 19.3702 9.6567H19.3669C19.253 9.62318 19.1488 9.5729 19.0512 9.51927C18.9503 9.46229 18.8591 9.39861 18.7778 9.32151C18.6964 9.24442 18.6215 9.16063 18.5597 9.07013C18.4946 8.97962 18.4425 8.88242 18.4002 8.77851C18.3579 8.67461 18.3286 8.57405 18.3058 8.46679C18.2863 8.35618 18.2733 8.24892 18.2733 8.13496C18.2733 8.04446 18.283 7.96066 18.296 7.86681C18.3123 7.77966 18.3351 7.69922 18.3644 7.61542L18.3676 7.60536C18.3774 7.57185 18.3937 7.54503 18.4067 7.50816L18.4523 7.41766L18.5044 7.32716C18.5239 7.29364 18.5467 7.26012 18.5695 7.22996L19.0382 6.65008ZM1.09366 11.6444H3.46977C4.07193 11.6444 4.56669 12.1672 4.56669 12.7706V27.4417H16.7174L20.1806 14.8923H33.8026C37.2105 14.8923 40 17.7682 40 21.2742V27.6595H39.9935L40 27.7835V38.0034H35.4366V33.2068H4.56343V37.7855H0V12.7706C0 12.1505 0.491496 11.6444 1.09366 11.6444ZM11.6657 10.4176L13.8726 7.69922H12.4306C12.3688 7.69922 12.3069 7.69586 12.2451 7.68916C12.1865 7.6791 12.1279 7.66905 12.0726 7.65229C12.0075 7.63218 11.9456 7.60536 11.8936 7.57855C11.835 7.54838 11.7829 7.51151 11.7341 7.46794L11.7308 7.46123C11.6852 7.42101 11.6429 7.37409 11.6104 7.32381C11.5746 7.27353 11.542 7.2199 11.516 7.15957C11.4932 7.10259 11.4737 7.04225 11.4607 6.98192C11.4509 6.91823 11.4444 6.8579 11.4444 6.79086C11.4444 6.72718 11.4509 6.66684 11.4607 6.60316C11.4704 6.54283 11.49 6.48249 11.5127 6.42886C11.5355 6.36853 11.5648 6.3149 11.6006 6.26127C11.6332 6.21434 11.6755 6.16407 11.7211 6.11714L11.7243 6.11379C11.7699 6.07021 11.822 6.02999 11.8805 5.99647C11.9359 5.96631 11.9977 5.93949 12.0661 5.91938C12.1214 5.90262 12.18 5.88586 12.2418 5.87916C12.3037 5.8691 12.3655 5.8691 12.4306 5.8691H15.5847C15.7442 5.8691 15.8906 5.88921 16.0176 5.93614C16.1543 5.98306 16.265 6.05345 16.3626 6.14731C16.4635 6.24451 16.5416 6.36182 16.5937 6.4959C16.6425 6.62997 16.6686 6.77745 16.6686 6.9417C16.6686 7.07242 16.6555 7.19309 16.6295 7.3037C16.6165 7.36403 16.597 7.42772 16.5774 7.4847C16.5546 7.54168 16.5253 7.59531 16.4961 7.64559C16.4733 7.6791 16.4472 7.71933 16.4147 7.76625C16.3821 7.80983 16.3496 7.85675 16.3105 7.90703L16.1803 8.06792C16.1413 8.1182 16.0957 8.17853 16.0371 8.24222L14.0223 10.7092H15.9525C16.0762 10.7092 16.1933 10.7259 16.304 10.7561C16.3691 10.7729 16.4277 10.7997 16.483 10.8299C16.5384 10.8567 16.5904 10.8935 16.6393 10.9371H16.6425C16.6914 10.9773 16.7369 11.0276 16.7727 11.0779C16.8118 11.1315 16.8443 11.1851 16.8704 11.2455L16.8801 11.2756C16.8997 11.3259 16.9127 11.3829 16.9257 11.4399C16.9355 11.4969 16.942 11.5572 16.942 11.6142C16.942 11.6779 16.9355 11.7382 16.9257 11.8019C16.9127 11.8622 16.8964 11.9226 16.8736 11.9795C16.8541 12.0399 16.8215 12.0969 16.7857 12.1505C16.7499 12.2041 16.7076 12.2544 16.6588 12.298L16.6555 12.3047C16.6067 12.3516 16.5546 12.3885 16.4993 12.4186C16.444 12.4521 16.3854 12.4756 16.3203 12.4957L16.2975 12.4991C16.2454 12.5158 16.1901 12.5259 16.1348 12.5359C16.0794 12.5393 16.0208 12.546 15.959 12.546H12.3493C12.2679 12.546 12.1898 12.5426 12.1116 12.5292C12.0368 12.5192 11.9619 12.5058 11.8936 12.4823H11.8903C11.8154 12.4589 11.7406 12.4287 11.6722 12.3918C11.6071 12.3516 11.542 12.308 11.4867 12.2544C11.4281 12.2041 11.3793 12.1471 11.3337 12.0868C11.2881 12.0231 11.2523 11.9561 11.2263 11.8823C11.197 11.8153 11.1742 11.7416 11.1612 11.6678C11.1482 11.5941 11.1417 11.517 11.1417 11.4399C11.1417 11.3796 11.1449 11.3192 11.1579 11.2589C11.1677 11.1986 11.184 11.1416 11.2068 11.0846C11.21 11.0645 11.2296 11.031 11.2361 11.0108L11.2686 10.9505C11.2784 10.9304 11.2914 10.9103 11.3044 10.8902C11.3207 10.8667 11.337 10.8433 11.3532 10.8231L11.3467 10.8198L11.6657 10.4176Z" fill="#CDA5F8"/>
</svg>
