<svg width="40" height="22" viewBox="0 0 40 22" fill="none" xmlns="http://www.w3.org/2000/svg">
<path d="M0.676276 4.76937L17.6155 19.5769C18.6745 20.5032 19.7354 20.9413 20.768 20.8773C22.2763 20.7816 23.2738 19.6356 23.2831 19.625L39.2967 4.50084L40 5.07089L24.0359 20.145C23.8723 20.3297 22.6919 21.5912 20.8472 21.7119C20.7528 21.7185 20.6591 21.7225 20.5641 21.7225C19.3349 21.7225 18.1163 21.2006 16.9379 20.1707L0 5.36252L0.676276 4.76937Z" fill="#CDA5F8"/>
<path d="M12.4507 6.34297C10.7767 6.34297 9.41968 4.98593 9.41968 3.31193C9.41968 1.63793 10.7767 0.280884 12.4507 0.280884C14.1247 0.280884 15.4818 1.63793 15.4818 3.31193C15.4818 4.98593 14.1247 6.34297 12.4507 6.34297Z" fill="#CDA5F8"/>
<path d="M22.1502 17.6582C22.1456 17.6635 22.141 17.6701 22.1357 17.6734C22.0638 17.7446 21.9886 17.8113 21.9114 17.872C21.753 18.0138 21.5947 18.1557 21.4363 18.2982C20.4552 19.1757 19.2069 18.7363 18.6256 17.9083C18.5135 17.8304 18.4053 17.7479 18.3037 17.6536C16.4464 15.9553 14.5884 14.2557 12.7331 12.5554C12.6276 12.4987 12.5233 12.4314 12.4224 12.3417C10.1336 10.2937 7.84479 8.2464 5.55798 6.19844C4.16518 4.95343 6.21644 2.91668 7.60199 4.15509C9.24617 5.62575 10.889 7.0964 12.5332 8.56706C12.5418 8.5598 12.5477 8.55056 12.5556 8.54265C13.6456 7.4672 15.299 7.56617 16.389 8.5631C18.1235 10.1486 19.8561 11.7347 21.5887 13.3188C24.8817 10.3709 28.1747 7.42299 31.467 4.47574C33.1956 2.92657 35.7602 5.47268 34.0204 7.03042C30.063 10.5741 26.1069 14.1158 22.1502 17.6582Z" fill="#CDA5F8"/>
</svg>
